<svg width="758" height="529" viewBox="0 0 758 529" fill="none" xmlns="http://www.w3.org/2000/svg">
<g clip-path="url(#clip0_207_2)">
<path d="M748.603 0H9.3968C4.48324 0 0.5 3.98324 0.5 8.89681V519.873C0.5 524.786 4.48324 528.769 9.3968 528.769H748.603C753.517 528.769 757.5 524.786 757.5 519.873V8.89681C757.5 3.98324 753.517 0 748.603 0Z" fill="#F0F9FF"/>
<path d="M456.977 164.646H301.039L288.001 151.608V141.893H360.277L365.962 147.577H392.054L397.738 141.893H470.015V151.608L456.977 164.646ZM303.385 158.962H454.615L464.331 149.246V147.577H400.085L394.4 153.262H363.6L357.915 147.577H293.669V149.246L303.385 158.962Z" fill="#2CABE1"/>
<path d="M458.63 136.208H452.946V45.1927C452.946 42.0592 450.395 39.5082 447.261 39.5082H310.739C307.605 39.5082 305.054 42.0592 305.054 45.1927V136.208H299.37V45.1927C299.37 38.9256 304.472 33.8237 310.739 33.8237H447.261C453.528 33.8237 458.63 38.9256 458.63 45.1927V136.208Z" fill="#2CABE1"/>
<path d="M370.465 124.823H364.781V130.508H370.465V124.823Z" fill="#2CABE1"/>
<path d="M359.081 124.823H353.396V130.508H359.081V124.823Z" fill="#2CABE1"/>
<path d="M381.834 124.823H376.15V130.508H381.834V124.823Z" fill="#2CABE1"/>
<path d="M393.219 124.823H387.535V130.508H393.219V124.823Z" fill="#2CABE1"/>
<path d="M404.588 124.823H398.904V130.508H404.588V124.823Z" fill="#2CABE1"/>
<path d="M447.261 130.523H410.288V124.823H441.577V50.8774H316.423V124.823H347.712V130.523H310.739V45.1929H447.261V130.523Z" fill="#2CABE1"/>
<path d="M618.568 482.097H462.63L449.592 469.059V459.343H521.869L527.553 465.028H553.645L559.33 459.343H631.606V469.059L618.568 482.097ZM464.976 476.413H616.206L625.922 466.697V465.028H561.676L555.991 470.712H525.191L519.507 465.028H455.261V466.697L464.976 476.413Z" fill="#2CABE1"/>
<path d="M620.237 453.659H614.553V362.643C614.553 359.51 612.002 356.959 608.868 356.959H472.346C469.212 356.959 466.661 359.51 466.661 362.643V453.659H460.977V362.643C460.977 356.376 466.078 351.274 472.346 351.274H608.868C615.135 351.274 620.237 356.376 620.237 362.643V453.659Z" fill="#2CABE1"/>
<path d="M532.072 442.274H526.388V447.958H532.072V442.274Z" fill="#2CABE1"/>
<path d="M520.688 442.274H515.003V447.958H520.688V442.274Z" fill="#2CABE1"/>
<path d="M543.441 442.274H537.757V447.958H543.441V442.274Z" fill="#2CABE1"/>
<path d="M554.826 442.274H549.142V447.958H554.826V442.274Z" fill="#2CABE1"/>
<path d="M566.195 442.274H560.511V447.958H566.195V442.274Z" fill="#2CABE1"/>
<path d="M608.868 447.958H571.895V442.274H603.168V368.328H478.03V442.274H509.319V447.958H472.346V362.644H608.868V447.958Z" fill="#2CABE1"/>
<path d="M295.37 482.097H139.432L126.394 469.059V459.343H198.67L204.355 465.028H230.447L236.132 459.343H308.408V469.059L295.37 482.097ZM141.778 476.413H293.008L302.724 466.697V465.028H238.478L232.793 470.712H201.993L196.308 465.028H132.063V466.697L141.778 476.413Z" fill="#2CABE1"/>
<path d="M297.039 453.659H291.355V362.643C291.355 359.51 288.804 356.959 285.67 356.959H149.148C146.014 356.959 143.463 359.51 143.463 362.643V453.659H137.779V362.643C137.779 356.376 142.88 351.274 149.148 351.274H285.67C291.937 351.274 297.039 356.376 297.039 362.643V453.659Z" fill="#2CABE1"/>
<path d="M208.858 442.274H203.174V447.958H208.858V442.274Z" fill="#2CABE1"/>
<path d="M197.474 442.274H191.789V447.958H197.474V442.274Z" fill="#2CABE1"/>
<path d="M220.227 442.274H214.543V447.958H220.227V442.274Z" fill="#2CABE1"/>
<path d="M231.612 442.274H225.928V447.958H231.612V442.274Z" fill="#2CABE1"/>
<path d="M242.981 442.274H237.297V447.958H242.981V442.274Z" fill="#2CABE1"/>
<path d="M285.654 447.958H248.682V442.274H279.97V368.328H154.816V442.274H186.105V447.958H149.132V362.644H285.654V447.958Z" fill="#2CABE1"/>
<path d="M296.394 282.289C296.394 286.855 300.094 290.556 304.661 290.556H453.339C457.906 290.556 461.606 286.855 461.606 282.289V240.985H296.409V282.289H296.394ZM301.905 246.497H456.095V282.289C456.095 283.816 454.867 285.044 453.339 285.044H304.661C303.133 285.044 301.905 283.816 301.905 282.289V246.497Z" fill="#2CABE1"/>
<path d="M351.459 263.015H345.948V257.503H329.43V263.015H323.919V279.533H351.444V263.015H351.459ZM345.948 274.022H329.43V268.51H334.941V262.999H340.452V268.51H345.964V274.022H345.948Z" fill="#2CABE1"/>
<path d="M356.971 279.533H384.496V263.015H378.984V257.503H362.466V263.015H356.955V279.533H356.971ZM362.482 268.526H367.993V263.015H373.504V268.526H379.016V274.037H362.498V268.526H362.482Z" fill="#2CABE1"/>
<path d="M390.007 279.533H417.532V263.015H412.021V257.503H395.502V263.015H389.991V279.533H390.007ZM395.518 268.526H401.029V263.015H406.541V268.526H412.052V274.037H395.534V268.526H395.518Z" fill="#2CABE1"/>
<path d="M423.043 279.533H450.568V263.015H445.057V257.503H428.539V263.015H423.027V279.533H423.043ZM428.554 268.526H434.066V263.015H439.577V268.526H445.088V274.037H428.57V268.526H428.554Z" fill="#2CABE1"/>
<path d="M356.971 252.008H351.459V257.519H356.971V252.008Z" fill="#2CABE1"/>
<path d="M390.023 252.008H384.511V257.519H390.023V252.008Z" fill="#2CABE1"/>
<path d="M423.059 252.008H417.548V257.519H423.059V252.008Z" fill="#2CABE1"/>
<path d="M318.423 274.038H307.416V279.549H318.423V274.038Z" fill="#2CABE1"/>
<path d="M318.423 263.015H307.416V268.526H318.423V263.015Z" fill="#2CABE1"/>
<path d="M318.423 252.008H307.416V257.519H318.423V252.008Z" fill="#2CABE1"/>
<path d="M714.024 290.556H558.086L545.048 277.517V267.802H617.324L623.009 273.486H649.101L654.785 267.802H727.062V277.517L714.024 290.556ZM560.432 284.871H711.662L721.377 275.155V273.486H657.131L651.447 279.171H620.647L614.962 273.486H550.716V275.155L560.432 284.871Z" fill="#2CABE1"/>
<path d="M715.677 262.101H709.993V171.086C709.993 167.953 707.442 165.402 704.308 165.402H567.786C564.652 165.402 562.101 167.953 562.101 171.086V262.101H556.417V171.086C556.417 164.819 561.518 159.717 567.786 159.717H704.308C710.575 159.717 715.677 164.819 715.677 171.086V262.101Z" fill="#2CABE1"/>
<path d="M627.512 250.732H621.828V256.417H627.512V250.732Z" fill="#2CABE1"/>
<path d="M616.127 250.732H610.443V256.417H616.127V250.732Z" fill="#2CABE1"/>
<path d="M638.881 250.732H633.197V256.417H638.881V250.732Z" fill="#2CABE1"/>
<path d="M650.266 250.732H644.581V256.417H650.266V250.732Z" fill="#2CABE1"/>
<path d="M661.635 250.732H655.951V256.417H661.635V250.732Z" fill="#2CABE1"/>
<path d="M704.308 256.417H667.335V250.732H698.624V176.787H573.47V250.732H604.758V256.417H567.786V171.102H704.308V256.417Z" fill="#2CABE1"/>
<path d="M199.914 290.556H43.9763L30.9381 277.517V267.802H103.215L108.899 273.486H134.991L140.676 267.802H212.953V277.517L199.914 290.556ZM46.3225 284.871H197.552L207.268 275.155V273.486H143.022L137.338 279.171H106.537L100.853 273.486H36.6226V275.155L46.3382 284.871H46.3225Z" fill="#2CABE1"/>
<path d="M201.584 262.101H195.899V171.086C195.899 167.953 193.348 165.402 190.215 165.402H53.6919C50.5583 165.402 48.0074 167.953 48.0074 171.086V262.101H42.3229V171.086C42.3229 164.819 47.4248 159.717 53.6919 159.717H190.215C196.482 159.717 201.584 164.819 201.584 171.086V262.101Z" fill="#2CABE1"/>
<path d="M113.419 250.732H107.734V256.417H113.419V250.732Z" fill="#2CABE1"/>
<path d="M102.034 250.732H96.3493V256.417H102.034V250.732Z" fill="#2CABE1"/>
<path d="M124.788 250.732H119.103V256.417H124.788V250.732Z" fill="#2CABE1"/>
<path d="M136.172 250.732H130.488V256.417H136.172V250.732Z" fill="#2CABE1"/>
<path d="M147.541 250.732H141.857V256.417H147.541V250.732Z" fill="#2CABE1"/>
<path d="M190.215 256.417H153.242V250.732H184.53V176.787H59.3764V250.732H90.6648V256.417H53.6919V171.102H190.215V256.417Z" fill="#2CABE1"/>
<path d="M336.595 97.5025V81.8662H342.279C343.555 81.8662 344.673 82.0709 345.633 82.4803C346.594 82.8897 347.397 83.4566 348.042 84.1495C348.688 84.8581 349.176 85.6769 349.491 86.6217C349.806 87.5665 349.979 88.5742 349.979 89.645C349.979 90.8417 349.79 91.9125 349.444 92.8731C349.082 93.8336 348.562 94.6524 347.885 95.3453C347.208 96.0224 346.405 96.5577 345.444 96.9357C344.499 97.3136 343.429 97.5025 342.263 97.5025H336.579H336.595ZM346.924 89.6608C346.924 88.9049 346.814 88.2278 346.609 87.5822C346.405 86.9523 346.105 86.4012 345.712 85.9446C345.318 85.4879 344.83 85.1415 344.247 84.8895C343.665 84.6376 343.003 84.5116 342.279 84.5116H339.634V94.8256H342.279C343.035 94.8256 343.696 94.6997 344.279 94.432C344.861 94.1643 345.35 93.8021 345.728 93.3454C346.105 92.8888 346.42 92.3377 346.625 91.7078C346.83 91.0779 346.94 90.4008 346.94 89.6608H346.924Z" fill="#02597E"/>
<path d="M357.443 97.7228C356.514 97.7228 355.679 97.5653 354.924 97.2504C354.168 96.9354 353.538 96.5103 353.002 95.9591C352.467 95.4238 352.073 94.7782 351.774 94.0696C351.491 93.3452 351.349 92.5894 351.349 91.802C351.349 91.0147 351.491 90.2116 351.774 89.4716C352.058 88.7472 352.451 88.1016 352.987 87.5505C353.522 86.9993 354.152 86.5584 354.908 86.2435C355.664 85.9128 356.514 85.7554 357.459 85.7554C358.404 85.7554 359.238 85.9128 359.978 86.2435C360.718 86.5742 361.348 86.9993 361.868 87.5505C362.387 88.1016 362.781 88.7315 363.049 89.4401C363.316 90.1644 363.458 90.9045 363.458 91.6918C363.458 91.8808 363.458 92.0697 363.458 92.243C363.458 92.4162 363.427 92.5736 363.395 92.6839H354.467C354.514 93.1405 354.624 93.5499 354.798 93.8963C354.971 94.2428 355.207 94.5577 355.475 94.7939C355.758 95.0458 356.073 95.2348 356.419 95.3608C356.766 95.4867 357.144 95.5655 357.522 95.5655C358.104 95.5655 358.671 95.4238 359.191 95.1403C359.71 94.8569 360.073 94.479 360.262 94.0066L362.797 94.7152C362.372 95.597 361.695 96.3213 360.765 96.8882C359.836 97.4551 358.718 97.7385 357.427 97.7385L357.443 97.7228ZM360.435 90.7628C360.356 89.8967 360.041 89.2039 359.474 88.6842C358.907 88.1646 358.23 87.8969 357.411 87.8969C357.018 87.8969 356.64 87.9599 356.293 88.1016C355.947 88.2433 355.648 88.4323 355.38 88.6842C355.112 88.9362 354.892 89.2354 354.735 89.5818C354.561 89.9282 354.467 90.3219 354.435 90.747H360.435V90.7628Z" fill="#02597E"/>
<path d="M368.088 97.5027L363.836 85.9604H366.875L369.804 95.1092L372.764 85.9604H375.536L371.284 97.5027H368.088Z" fill="#02597E"/>
<path d="M377.063 84.3542V81.4253H380.024V84.3542H377.063ZM377.063 97.5025V85.9603H380.024V97.5025H377.063Z" fill="#02597E"/>
<path d="M381.96 91.7391C381.96 90.936 382.102 90.1644 382.386 89.4401C382.669 88.7157 383.063 88.0859 383.598 87.5505C384.133 87.0151 384.763 86.5742 385.519 86.2435C386.275 85.9128 387.109 85.7554 388.054 85.7554C389.314 85.7554 390.401 86.0231 391.282 86.5742C392.164 87.1253 392.841 87.8339 393.282 88.7157L390.401 89.5975C390.149 89.1724 389.818 88.8417 389.408 88.6212C388.999 88.4008 388.542 88.2748 388.039 88.2748C387.613 88.2748 387.22 88.3536 386.858 88.5268C386.495 88.7 386.165 88.9362 385.897 89.2354C385.629 89.5345 385.409 89.8967 385.251 90.3219C385.094 90.747 385.015 91.2194 385.015 91.7391C385.015 92.2587 385.094 92.7154 385.251 93.1563C385.409 93.5972 385.629 93.9436 385.897 94.2585C386.165 94.5734 386.495 94.8096 386.858 94.9829C387.22 95.1561 387.613 95.2348 388.023 95.2348C388.558 95.2348 389.046 95.1088 389.487 94.8411C389.928 94.5734 390.243 94.2585 390.416 93.8649L393.298 94.7467C392.904 95.6285 392.243 96.3528 391.33 96.9039C390.416 97.4551 389.33 97.7385 388.054 97.7385C387.109 97.7385 386.275 97.581 385.519 97.2504C384.763 96.9197 384.133 96.4945 383.598 95.9434C383.063 95.3923 382.669 94.7467 382.37 94.0223C382.086 93.298 381.945 92.5421 381.945 91.7391H381.96Z" fill="#02597E"/>
<path d="M400.352 97.7228C399.423 97.7228 398.589 97.5653 397.833 97.2504C397.077 96.9354 396.447 96.5103 395.912 95.9591C395.376 95.4238 394.983 94.7782 394.684 94.0696C394.4 93.3452 394.258 92.5894 394.258 91.802C394.258 91.0147 394.4 90.2116 394.684 89.4716C394.967 88.7472 395.361 88.1016 395.896 87.5505C396.431 86.9993 397.061 86.5584 397.817 86.2435C398.573 85.9128 399.423 85.7554 400.368 85.7554C401.313 85.7554 402.147 85.9128 402.888 86.2435C403.628 86.5742 404.257 86.9993 404.777 87.5505C405.297 88.1016 405.69 88.7315 405.958 89.4401C406.226 90.1644 406.368 90.9045 406.368 91.6918C406.368 91.8808 406.368 92.0697 406.368 92.243C406.368 92.4162 406.336 92.5736 406.305 92.6839H397.376C397.423 93.1405 397.534 93.5499 397.707 93.8963C397.88 94.2428 398.116 94.5577 398.384 94.7939C398.667 95.0458 398.982 95.2348 399.329 95.3608C399.675 95.4867 400.053 95.5655 400.431 95.5655C401.014 95.5655 401.581 95.4238 402.1 95.1403C402.62 94.8569 402.982 94.479 403.171 94.0066L405.706 94.7152C405.281 95.597 404.604 96.3213 403.675 96.8882C402.746 97.4551 401.628 97.7385 400.337 97.7385L400.352 97.7228ZM403.344 90.7628C403.265 89.8967 402.951 89.2039 402.384 88.6842C401.817 88.1646 401.14 87.8969 400.321 87.8969C399.927 87.8969 399.549 87.9599 399.203 88.1016C398.856 88.2433 398.557 88.4323 398.29 88.6842C398.022 88.9362 397.801 89.2354 397.644 89.5818C397.471 89.9282 397.376 90.3219 397.345 90.747H403.344V90.7628Z" fill="#02597E"/>
<path d="M422.508 94.8416V97.5028H413.564V94.8416H416.697V88.1651C416.571 88.3383 416.351 88.5272 416.067 88.7004C415.784 88.8894 415.469 89.0626 415.138 89.2201C414.808 89.3775 414.446 89.5193 414.099 89.6137C413.753 89.7082 413.422 89.7712 413.139 89.7712V87.0156C413.406 87.0156 413.721 86.9368 414.115 86.7636C414.493 86.5904 414.871 86.3857 415.233 86.1652C415.595 85.929 415.926 85.6928 416.193 85.4724C416.461 85.2519 416.634 85.063 416.713 84.937H419.736V94.8573H422.539L422.508 94.8416Z" fill="#02597E"/>
<path d="M595.72 221.538V205.902H601.404C602.68 205.902 603.798 206.107 604.758 206.516C605.719 206.925 606.522 207.492 607.168 208.185C607.813 208.894 608.301 209.713 608.616 210.657C608.931 211.602 609.104 212.61 609.104 213.681C609.104 214.877 608.915 215.948 608.569 216.909C608.207 217.869 607.687 218.688 607.01 219.381C606.333 220.058 605.53 220.593 604.569 220.971C603.625 221.349 602.554 221.538 601.389 221.538H595.704H595.72ZM606.05 213.696C606.05 212.941 605.939 212.263 605.735 211.618C605.53 210.988 605.231 210.437 604.837 209.98C604.443 209.524 603.955 209.177 603.373 208.925C602.79 208.673 602.129 208.547 601.404 208.547H598.759V218.861H601.404C602.16 218.861 602.822 218.735 603.404 218.468C603.987 218.2 604.475 217.838 604.853 217.381C605.231 216.924 605.546 216.373 605.75 215.743C605.955 215.114 606.065 214.437 606.065 213.696H606.05Z" fill="#02597E"/>
<path d="M616.568 221.759C615.639 221.759 614.805 221.601 614.049 221.286C613.293 220.972 612.663 220.546 612.128 219.995C611.592 219.46 611.199 218.814 610.9 218.106C610.616 217.381 610.474 216.626 610.474 215.838C610.474 215.051 610.616 214.248 610.9 213.508C611.183 212.783 611.577 212.138 612.112 211.587C612.647 211.035 613.277 210.595 614.033 210.28C614.789 209.949 615.639 209.792 616.584 209.792C617.529 209.792 618.363 209.949 619.104 210.28C619.844 210.61 620.473 211.035 620.993 211.587C621.513 212.138 621.906 212.768 622.174 213.476C622.442 214.201 622.584 214.941 622.584 215.728C622.584 215.917 622.584 216.106 622.584 216.279C622.584 216.452 622.552 216.61 622.521 216.72H613.592C613.639 217.177 613.75 217.586 613.923 217.932C614.096 218.279 614.332 218.594 614.6 218.83C614.883 219.082 615.198 219.271 615.545 219.397C615.891 219.523 616.269 219.602 616.647 219.602C617.23 219.602 617.797 219.46 618.316 219.176C618.836 218.893 619.198 218.515 619.387 218.043L621.922 218.751C621.497 219.633 620.82 220.357 619.891 220.924C618.962 221.491 617.844 221.775 616.553 221.775L616.568 221.759ZM619.56 214.799C619.481 213.933 619.167 213.24 618.6 212.72C618.033 212.201 617.356 211.933 616.537 211.933C616.143 211.933 615.765 211.996 615.419 212.138C615.072 212.279 614.773 212.468 614.506 212.72C614.238 212.972 614.017 213.272 613.86 213.618C613.687 213.964 613.592 214.358 613.561 214.783H619.56V214.799Z" fill="#02597E"/>
<path d="M627.197 221.538L622.946 209.996H625.985L628.914 219.145L631.874 209.996H634.645L630.394 221.538H627.197Z" fill="#02597E"/>
<path d="M636.189 208.374V205.445H639.149V208.374H636.189ZM636.189 221.523V209.98H639.149V221.523H636.189Z" fill="#02597E"/>
<path d="M641.086 215.759C641.086 214.956 641.227 214.184 641.511 213.46C641.794 212.736 642.188 212.106 642.723 211.57C643.259 211.035 643.889 210.594 644.644 210.264C645.4 209.933 646.235 209.775 647.18 209.775C648.439 209.775 649.526 210.043 650.408 210.594C651.289 211.145 651.967 211.854 652.407 212.736L649.526 213.618C649.274 213.192 648.943 212.862 648.534 212.641C648.124 212.421 647.668 212.295 647.164 212.295C646.739 212.295 646.345 212.374 645.983 212.547C645.621 212.72 645.29 212.956 645.022 213.255C644.755 213.555 644.534 213.917 644.377 214.342C644.219 214.767 644.141 215.239 644.141 215.759C644.141 216.279 644.219 216.735 644.377 217.176C644.534 217.617 644.755 217.964 645.022 218.279C645.29 218.593 645.621 218.83 645.983 219.003C646.345 219.176 646.739 219.255 647.148 219.255C647.684 219.255 648.172 219.129 648.613 218.861C649.053 218.593 649.368 218.279 649.542 217.885L652.423 218.767C652.03 219.648 651.368 220.373 650.455 220.924C649.542 221.475 648.455 221.759 647.18 221.759C646.235 221.759 645.4 221.601 644.644 221.27C643.889 220.94 643.259 220.515 642.723 219.963C642.188 219.412 641.794 218.767 641.495 218.042C641.212 217.318 641.07 216.562 641.07 215.759H641.086Z" fill="#02597E"/>
<path d="M659.478 221.759C658.549 221.759 657.714 221.601 656.958 221.286C656.202 220.972 655.573 220.546 655.037 219.995C654.502 219.46 654.108 218.814 653.809 218.106C653.526 217.381 653.384 216.626 653.384 215.838C653.384 215.051 653.526 214.248 653.809 213.508C654.092 212.783 654.486 212.138 655.021 211.587C655.557 211.035 656.187 210.595 656.942 210.28C657.698 209.949 658.549 209.792 659.493 209.792C660.438 209.792 661.273 209.949 662.013 210.28C662.753 210.61 663.383 211.035 663.902 211.587C664.422 212.138 664.816 212.768 665.083 213.476C665.351 214.201 665.493 214.941 665.493 215.728C665.493 215.917 665.493 216.106 665.493 216.279C665.493 216.452 665.461 216.61 665.43 216.72H656.502C656.549 217.177 656.659 217.586 656.832 217.932C657.005 218.279 657.242 218.594 657.509 218.83C657.793 219.082 658.108 219.271 658.454 219.397C658.801 219.523 659.179 219.602 659.556 219.602C660.139 219.602 660.706 219.46 661.226 219.176C661.745 218.893 662.107 218.515 662.296 218.043L664.832 218.751C664.406 219.633 663.729 220.357 662.8 220.924C661.871 221.491 660.753 221.775 659.462 221.775L659.478 221.759ZM662.47 214.799C662.391 213.933 662.076 213.24 661.509 212.72C660.942 212.201 660.265 211.933 659.446 211.933C659.053 211.933 658.675 211.996 658.328 212.138C657.982 212.279 657.683 212.468 657.415 212.72C657.147 212.972 656.927 213.272 656.769 213.618C656.596 213.964 656.502 214.358 656.47 214.783H662.47V214.799Z" fill="#02597E"/>
<path d="M672.106 221.538C672.106 220.877 672.154 220.278 672.264 219.743C672.358 219.208 672.547 218.704 672.799 218.263C673.051 217.822 673.413 217.381 673.854 216.987C674.295 216.594 674.878 216.2 675.555 215.822C676.153 215.491 676.689 215.224 677.145 214.972C677.602 214.736 677.996 214.499 678.295 214.295C678.61 214.09 678.83 213.885 679.003 213.665C679.161 213.444 679.24 213.208 679.24 212.925C679.24 212.484 679.066 212.106 678.704 211.791C678.342 211.476 677.838 211.319 677.193 211.319C676.846 211.319 676.515 211.366 676.216 211.46C675.917 211.555 675.649 211.681 675.397 211.854C675.146 212.027 674.909 212.2 674.689 212.389C674.484 212.594 674.279 212.799 674.106 213.019L672.217 210.846C672.406 210.642 672.673 210.421 673.035 210.169C673.382 209.933 673.807 209.697 674.279 209.492C674.752 209.272 675.287 209.098 675.87 208.957C676.452 208.815 677.067 208.752 677.728 208.752C678.484 208.752 679.145 208.846 679.728 209.02C680.31 209.209 680.814 209.461 681.208 209.791C681.617 210.122 681.917 210.516 682.137 210.988C682.357 211.46 682.452 211.948 682.452 212.5C682.452 213.051 682.357 213.476 682.168 213.87C681.98 214.263 681.728 214.625 681.444 214.925C681.145 215.24 680.83 215.507 680.484 215.728C680.137 215.948 679.806 216.153 679.476 216.326C679.208 216.468 678.909 216.641 678.578 216.83C678.248 217.019 677.901 217.224 677.571 217.46C677.24 217.696 676.941 217.916 676.657 218.168C676.374 218.405 676.169 218.657 676.012 218.877H682.688V221.538H672.075H672.106Z" fill="#02597E"/>
<path d="M81.7365 221.538V205.902H87.421C88.6965 205.902 89.8145 206.107 90.775 206.516C91.7356 206.925 92.5386 207.492 93.1843 208.185C93.8299 208.894 94.318 209.713 94.6329 210.657C94.9479 211.602 95.1211 212.61 95.1211 213.681C95.1211 214.877 94.9321 215.948 94.5857 216.909C94.2235 217.869 93.7039 218.688 93.0268 219.381C92.3497 220.058 91.5466 220.593 90.5861 220.971C89.6413 221.349 88.5705 221.538 87.4053 221.538H81.7208H81.7365ZM92.0663 213.696C92.0663 212.941 91.956 212.263 91.7513 211.618C91.5466 210.988 91.2474 210.437 90.8538 209.98C90.4601 209.524 89.972 209.177 89.3893 208.925C88.8067 208.673 88.1454 208.547 87.421 208.547H84.7756V218.861H87.421C88.1769 218.861 88.8382 218.735 89.4208 218.468C90.0035 218.2 90.4916 217.838 90.8695 217.381C91.2474 216.924 91.5624 216.373 91.7671 215.743C91.9718 215.114 92.082 214.437 92.082 213.696H92.0663Z" fill="#02597E"/>
<path d="M102.569 221.759C101.64 221.759 100.806 221.601 100.05 221.286C99.2939 220.972 98.6641 220.546 98.1287 219.995C97.5933 219.46 97.1996 218.814 96.9004 218.106C96.617 217.381 96.4753 216.626 96.4753 215.838C96.4753 215.051 96.617 214.248 96.9004 213.508C97.1839 212.783 97.5775 212.138 98.1129 211.587C98.6483 211.035 99.2782 210.595 100.034 210.28C100.79 209.949 101.64 209.792 102.585 209.792C103.53 209.792 104.364 209.949 105.104 210.28C105.844 210.61 106.474 211.035 106.994 211.587C107.514 212.138 107.907 212.768 108.175 213.476C108.443 214.201 108.584 214.941 108.584 215.728C108.584 215.917 108.584 216.106 108.584 216.279C108.584 216.452 108.553 216.61 108.521 216.72H99.5931C99.6403 217.177 99.7506 217.586 99.9238 217.932C100.097 218.279 100.333 218.594 100.601 218.83C100.884 219.082 101.199 219.271 101.546 219.397C101.892 219.523 102.27 219.602 102.648 219.602C103.231 219.602 103.797 219.46 104.317 219.176C104.837 218.893 105.199 218.515 105.388 218.043L107.923 218.751C107.498 219.633 106.821 220.357 105.892 220.924C104.963 221.491 103.845 221.775 102.553 221.775L102.569 221.759ZM105.561 214.799C105.482 213.933 105.167 213.24 104.601 212.72C104.034 212.201 103.357 211.933 102.538 211.933C102.144 211.933 101.766 211.996 101.42 212.138C101.073 212.279 100.774 212.468 100.506 212.72C100.239 212.972 100.018 213.272 99.8608 213.618C99.6876 213.964 99.5931 214.358 99.5616 214.783H105.561V214.799Z" fill="#02597E"/>
<path d="M113.214 221.538L108.962 209.996H112.001L114.93 219.145L117.891 209.996H120.662L116.41 221.538H113.214Z" fill="#02597E"/>
<path d="M122.205 208.374V205.445H125.166V208.374H122.205ZM122.205 221.523V209.98H125.166V221.523H122.205Z" fill="#02597E"/>
<path d="M127.102 215.759C127.102 214.956 127.244 214.184 127.528 213.46C127.811 212.736 128.205 212.106 128.74 211.57C129.275 211.035 129.905 210.594 130.661 210.264C131.417 209.933 132.251 209.775 133.196 209.775C134.456 209.775 135.543 210.043 136.424 210.594C137.306 211.145 137.983 211.854 138.424 212.736L135.543 213.618C135.291 213.192 134.96 212.862 134.55 212.641C134.141 212.421 133.684 212.295 133.181 212.295C132.755 212.295 132.362 212.374 132 212.547C131.637 212.72 131.307 212.956 131.039 213.255C130.771 213.555 130.551 213.917 130.393 214.342C130.236 214.767 130.157 215.239 130.157 215.759C130.157 216.279 130.236 216.735 130.393 217.176C130.551 217.617 130.771 217.964 131.039 218.279C131.307 218.593 131.637 218.83 132 219.003C132.362 219.176 132.755 219.255 133.165 219.255C133.7 219.255 134.188 219.129 134.629 218.861C135.07 218.593 135.385 218.279 135.558 217.885L138.44 218.767C138.046 219.648 137.385 220.373 136.472 220.924C135.558 221.475 134.472 221.759 133.196 221.759C132.251 221.759 131.417 221.601 130.661 221.27C129.905 220.94 129.275 220.515 128.74 219.963C128.205 219.412 127.811 218.767 127.512 218.042C127.228 217.318 127.087 216.562 127.087 215.759H127.102Z" fill="#02597E"/>
<path d="M145.494 221.759C144.565 221.759 143.731 221.601 142.975 221.286C142.219 220.972 141.589 220.546 141.054 219.995C140.518 219.46 140.125 218.814 139.826 218.106C139.542 217.381 139.4 216.626 139.4 215.838C139.4 215.051 139.542 214.248 139.826 213.508C140.109 212.783 140.503 212.138 141.038 211.587C141.573 211.035 142.203 210.595 142.959 210.28C143.715 209.949 144.565 209.792 145.51 209.792C146.455 209.792 147.289 209.949 148.03 210.28C148.77 210.61 149.399 211.035 149.919 211.587C150.439 212.138 150.832 212.768 151.1 213.476C151.368 214.201 151.509 214.941 151.509 215.728C151.509 215.917 151.509 216.106 151.509 216.279C151.509 216.452 151.478 216.61 151.447 216.72H142.518C142.565 217.177 142.676 217.586 142.849 217.932C143.022 218.279 143.258 218.594 143.526 218.83C143.809 219.082 144.124 219.271 144.471 219.397C144.817 219.523 145.195 219.602 145.573 219.602C146.156 219.602 146.723 219.46 147.242 219.176C147.762 218.893 148.124 218.515 148.313 218.043L150.848 218.751C150.423 219.633 149.746 220.357 148.817 220.924C147.888 221.491 146.77 221.775 145.479 221.775L145.494 221.759ZM148.486 214.799C148.407 213.933 148.092 213.24 147.526 212.72C146.959 212.201 146.282 211.933 145.463 211.933C145.069 211.933 144.691 211.996 144.345 212.138C143.998 212.279 143.699 212.468 143.432 212.72C143.164 212.972 142.943 213.272 142.786 213.618C142.613 213.964 142.518 214.358 142.487 214.783H148.486V214.799Z" fill="#02597E"/>
<path d="M163.666 214.5C164.406 214.5 165.083 214.626 165.713 214.862C166.343 215.098 166.894 215.444 167.351 215.885C167.807 216.326 168.154 216.862 168.421 217.476C168.673 218.09 168.799 218.783 168.799 219.523C168.799 220.31 168.658 221.034 168.374 221.68C168.091 222.326 167.681 222.877 167.177 223.349C166.673 223.822 166.059 224.168 165.351 224.436C164.642 224.688 163.886 224.829 163.052 224.829C161.902 224.829 160.879 224.593 159.981 224.105C159.084 223.617 158.391 222.955 157.918 222.121L159.619 220.357C160.028 220.924 160.548 221.381 161.162 221.727C161.776 222.058 162.422 222.231 163.083 222.231C163.871 222.231 164.532 221.995 165.036 221.523C165.54 221.05 165.792 220.405 165.792 219.617C165.792 218.83 165.555 218.232 165.067 217.775C164.595 217.302 163.981 217.066 163.256 217.066C162.768 217.066 162.327 217.176 161.902 217.397C161.477 217.617 161.146 217.917 160.894 218.295H158.312C158.312 218.295 158.344 218.09 158.407 217.806C158.469 217.523 158.532 217.145 158.627 216.704C158.721 216.247 158.816 215.759 158.91 215.208C159.021 214.657 159.131 214.09 159.241 213.523C159.509 212.169 159.792 210.657 160.123 208.988H167.839V211.681H162.264L161.619 215.177C161.792 214.988 162.06 214.83 162.406 214.72C162.753 214.61 163.178 214.547 163.666 214.547V214.5Z" fill="#02597E"/>
<path d="M501.918 413.379V397.742H507.602C508.878 397.742 509.996 397.947 510.956 398.356C511.917 398.766 512.72 399.333 513.365 400.025C514.011 400.734 514.499 401.553 514.814 402.498C515.129 403.442 515.302 404.45 515.302 405.521C515.302 406.718 515.113 407.788 514.767 408.749C514.405 409.71 513.885 410.528 513.208 411.221C512.531 411.898 511.728 412.434 510.767 412.812C509.822 413.19 508.752 413.379 507.586 413.379H501.902H501.918ZM512.247 405.537C512.247 404.781 512.137 404.104 511.932 403.458C511.728 402.828 511.429 402.277 511.035 401.821C510.641 401.364 510.153 401.017 509.57 400.766C508.988 400.514 508.326 400.388 507.602 400.388H504.957V410.702H507.602C508.358 410.702 509.019 410.576 509.602 410.308C510.185 410.04 510.673 409.678 511.051 409.221C511.444 408.765 511.743 408.214 511.948 407.584C512.153 406.954 512.263 406.277 512.263 405.537H512.247Z" fill="#02597E"/>
<path d="M522.766 413.599C521.837 413.599 521.002 413.441 520.247 413.126C519.491 412.811 518.861 412.386 518.326 411.835C517.79 411.284 517.397 410.654 517.097 409.946C516.814 409.221 516.672 408.465 516.672 407.678C516.672 406.891 516.814 406.072 517.097 405.348C517.381 404.623 517.774 403.978 518.31 403.426C518.845 402.875 519.475 402.434 520.231 402.119C520.987 401.789 521.837 401.631 522.782 401.631C523.727 401.631 524.561 401.789 525.301 402.119C526.041 402.45 526.671 402.875 527.191 403.426C527.711 403.978 528.104 404.607 528.372 405.316C528.64 406.04 528.781 406.78 528.781 407.568C528.781 407.757 528.781 407.946 528.781 408.119C528.781 408.292 528.75 408.45 528.718 408.56H519.79C519.837 409.016 519.947 409.426 520.121 409.772C520.294 410.119 520.53 410.434 520.798 410.67C521.081 410.922 521.396 411.111 521.743 411.237C522.089 411.363 522.467 411.441 522.845 411.441C523.427 411.441 523.994 411.3 524.514 411.016C525.034 410.733 525.396 410.355 525.585 409.883L528.12 410.591C527.695 411.473 527.018 412.197 526.089 412.764C525.16 413.331 524.042 413.615 522.75 413.615L522.766 413.599ZM525.758 406.639C525.679 405.773 525.364 405.08 524.797 404.56C524.23 404.041 523.553 403.773 522.735 403.773C522.341 403.773 521.963 403.836 521.617 403.978C521.27 404.119 520.971 404.308 520.703 404.56C520.436 404.812 520.215 405.111 520.058 405.458C519.884 405.804 519.79 406.198 519.759 406.623H525.758V406.639Z" fill="#02597E"/>
<path d="M533.411 413.379L529.159 401.836H532.198L535.127 410.985L538.087 401.836H540.859L536.607 413.379H533.411Z" fill="#02597E"/>
<path d="M542.402 400.23V397.301H545.362V400.23H542.402ZM542.402 413.378V401.836H545.362V413.378H542.402Z" fill="#02597E"/>
<path d="M547.283 407.599C547.283 406.796 547.425 406.025 547.709 405.3C547.992 404.576 548.386 403.946 548.921 403.411C549.456 402.875 550.086 402.435 550.842 402.104C551.598 401.773 552.433 401.616 553.377 401.616C554.637 401.616 555.724 401.883 556.605 402.435C557.487 402.986 558.164 403.694 558.605 404.576L555.724 405.458C555.472 405.033 555.141 404.702 554.732 404.482C554.322 404.261 553.866 404.135 553.362 404.135C552.936 404.135 552.543 404.214 552.181 404.387C551.818 404.56 551.488 404.797 551.22 405.096C550.952 405.395 550.732 405.757 550.574 406.182C550.417 406.607 550.338 407.08 550.338 407.584C550.338 408.088 550.417 408.56 550.574 409.001C550.732 409.426 550.952 409.788 551.22 410.103C551.488 410.418 551.818 410.654 552.181 410.827C552.543 411.001 552.936 411.079 553.346 411.079C553.881 411.079 554.369 410.953 554.81 410.686C555.251 410.418 555.566 410.103 555.739 409.709L558.621 410.591C558.227 411.473 557.566 412.197 556.653 412.749C555.739 413.3 554.653 413.583 553.377 413.583C552.433 413.583 551.598 413.426 550.842 413.095C550.086 412.764 549.456 412.339 548.921 411.788C548.386 411.237 547.992 410.591 547.693 409.867C547.409 409.143 547.268 408.371 547.268 407.584L547.283 407.599Z" fill="#02597E"/>
<path d="M565.691 413.599C564.762 413.599 563.928 413.441 563.172 413.126C562.416 412.811 561.786 412.386 561.251 411.835C560.715 411.284 560.322 410.654 560.022 409.946C559.739 409.221 559.597 408.465 559.597 407.678C559.597 406.891 559.739 406.072 560.022 405.348C560.306 404.623 560.7 403.978 561.235 403.426C561.77 402.875 562.4 402.434 563.156 402.119C563.912 401.789 564.762 401.631 565.707 401.631C566.652 401.631 567.486 401.789 568.226 402.119C568.966 402.45 569.596 402.875 570.116 403.426C570.636 403.978 571.029 404.607 571.297 405.316C571.565 406.04 571.706 406.78 571.706 407.568C571.706 407.757 571.706 407.946 571.706 408.119C571.706 408.292 571.675 408.45 571.643 408.56H562.715C562.762 409.016 562.873 409.426 563.046 409.772C563.219 410.119 563.455 410.434 563.723 410.67C564.006 410.922 564.321 411.111 564.668 411.237C565.014 411.363 565.392 411.441 565.77 411.441C566.353 411.441 566.919 411.3 567.439 411.016C567.959 410.733 568.321 410.355 568.51 409.883L571.045 410.591C570.62 411.473 569.943 412.197 569.014 412.764C568.085 413.331 566.967 413.615 565.675 413.615L565.691 413.599ZM568.683 406.639C568.604 405.773 568.289 405.08 567.723 404.56C567.156 404.041 566.479 403.773 565.66 403.773C565.266 403.773 564.888 403.836 564.542 403.978C564.195 404.119 563.896 404.308 563.628 404.56C563.361 404.812 563.14 405.111 562.983 405.458C562.81 405.804 562.715 406.198 562.684 406.623H568.683V406.639Z" fill="#02597E"/>
<path d="M585.863 408.182C586.776 408.339 587.516 408.78 588.083 409.489C588.65 410.198 588.933 411.079 588.933 412.103C588.933 412.796 588.791 413.41 588.524 413.977C588.256 414.528 587.862 415 587.374 415.394C586.886 415.788 586.288 416.087 585.579 416.291C584.871 416.512 584.083 416.606 583.201 416.606C582.083 416.606 581.091 416.433 580.241 416.071C579.391 415.709 578.666 415.189 578.099 414.496L579.769 412.402C580.147 412.89 580.603 413.252 581.139 413.52C581.674 413.788 582.335 413.914 583.123 413.914C584.02 413.914 584.697 413.741 585.17 413.378C585.642 413.032 585.878 412.481 585.878 411.741C585.878 411.001 585.611 410.387 585.059 409.977C584.508 409.568 583.69 409.363 582.587 409.363H581.973V407.158H582.65C583.564 407.158 584.272 406.954 584.76 406.56C585.264 406.151 585.516 405.647 585.516 405.001C585.516 404.356 585.311 403.946 584.902 403.663C584.493 403.364 583.957 403.222 583.296 403.222C582.634 403.222 582.02 403.379 581.469 403.678C580.934 403.993 580.493 404.419 580.162 404.985L578.304 402.923C578.525 402.592 578.824 402.277 579.186 402.009C579.548 401.742 579.973 401.505 580.43 401.301C580.887 401.096 581.391 400.954 581.942 400.844C582.477 400.734 583.044 400.671 583.611 400.671C584.367 400.671 585.044 400.765 585.658 400.954C586.272 401.143 586.807 401.411 587.248 401.742C587.689 402.072 588.036 402.482 588.288 402.97C588.524 403.442 588.65 403.978 588.65 404.576C588.65 405.017 588.587 405.426 588.445 405.836C588.303 406.245 588.114 406.592 587.878 406.922C587.642 407.253 587.327 407.521 586.981 407.741C586.634 407.962 586.256 408.103 585.847 408.182H585.863Z" fill="#02597E"/>
<path d="M176.987 413.379V397.742H182.672C183.947 397.742 185.065 397.947 186.026 398.356C186.986 398.766 187.79 399.333 188.435 400.025C189.081 400.734 189.569 401.553 189.884 402.498C190.199 403.442 190.372 404.45 190.372 405.521C190.372 406.718 190.183 407.788 189.837 408.749C189.474 409.71 188.955 410.528 188.278 411.221C187.601 411.898 186.798 412.434 185.837 412.812C184.892 413.19 183.821 413.379 182.656 413.379H176.972H176.987ZM187.317 405.537C187.317 404.781 187.207 404.104 187.002 403.458C186.798 402.828 186.498 402.277 186.105 401.821C185.711 401.364 185.223 401.017 184.64 400.766C184.058 400.514 183.396 400.388 182.672 400.388H180.027V410.702H182.672C183.428 410.702 184.089 410.576 184.672 410.308C185.254 410.04 185.742 409.678 186.12 409.221C186.514 408.765 186.813 408.214 187.018 407.584C187.223 406.954 187.333 406.277 187.333 405.537H187.317Z" fill="#02597E"/>
<path d="M197.836 413.599C196.907 413.599 196.072 413.441 195.316 413.126C194.561 412.811 193.931 412.386 193.395 411.835C192.86 411.284 192.466 410.654 192.167 409.946C191.884 409.221 191.742 408.465 191.742 407.678C191.742 406.891 191.884 406.072 192.167 405.348C192.451 404.623 192.844 403.978 193.38 403.426C193.915 402.875 194.545 402.434 195.301 402.119C196.057 401.789 196.907 401.631 197.852 401.631C198.796 401.631 199.631 401.789 200.371 402.119C201.111 402.45 201.741 402.875 202.261 403.426C202.78 403.978 203.174 404.607 203.442 405.316C203.709 406.04 203.851 406.78 203.851 407.568C203.851 407.757 203.851 407.946 203.851 408.119C203.851 408.292 203.82 408.45 203.788 408.56H194.86C194.907 409.016 195.017 409.426 195.19 409.772C195.364 410.119 195.6 410.434 195.868 410.67C196.151 410.922 196.466 411.111 196.812 411.237C197.159 411.363 197.537 411.441 197.915 411.441C198.497 411.441 199.064 411.3 199.584 411.016C200.103 410.733 200.466 410.355 200.655 409.883L203.19 410.591C202.765 411.473 202.087 412.197 201.158 412.764C200.229 413.331 199.111 413.615 197.82 413.615L197.836 413.599ZM200.828 406.639C200.749 405.773 200.434 405.08 199.867 404.56C199.3 404.041 198.623 403.773 197.804 403.773C197.411 403.773 197.033 403.836 196.686 403.978C196.34 404.119 196.041 404.308 195.773 404.56C195.505 404.812 195.285 405.111 195.127 405.458C194.954 405.804 194.86 406.198 194.828 406.623H200.828V406.639Z" fill="#02597E"/>
<path d="M208.465 413.379L204.213 401.836H207.252L210.181 410.985L213.142 401.836H215.913L211.661 413.379H208.465Z" fill="#02597E"/>
<path d="M217.456 400.23V397.301H220.416V400.23H217.456ZM217.456 413.378V401.836H220.416V413.378H217.456Z" fill="#02597E"/>
<path d="M222.353 407.599C222.353 406.796 222.495 406.025 222.778 405.3C223.062 404.576 223.455 403.946 223.991 403.411C224.526 402.875 225.156 402.435 225.912 402.104C226.668 401.773 227.502 401.616 228.447 401.616C229.707 401.616 230.793 401.883 231.675 402.435C232.557 402.986 233.234 403.694 233.675 404.576L230.793 405.458C230.541 405.033 230.211 404.702 229.801 404.482C229.392 404.261 228.935 404.135 228.431 404.135C228.006 404.135 227.613 404.214 227.25 404.387C226.888 404.56 226.558 404.797 226.29 405.096C226.022 405.395 225.802 405.757 225.644 406.182C225.487 406.607 225.408 407.08 225.408 407.584C225.408 408.088 225.487 408.56 225.644 409.001C225.802 409.426 226.022 409.788 226.29 410.103C226.558 410.418 226.888 410.654 227.25 410.827C227.613 411.001 228.006 411.079 228.416 411.079C228.951 411.079 229.439 410.953 229.88 410.686C230.321 410.418 230.636 410.103 230.809 409.709L233.691 410.591C233.297 411.473 232.636 412.197 231.722 412.749C230.809 413.3 229.723 413.583 228.447 413.583C227.502 413.583 226.668 413.426 225.912 413.095C225.156 412.764 224.526 412.339 223.991 411.788C223.455 411.237 223.062 410.591 222.763 409.867C222.479 409.143 222.338 408.371 222.338 407.584L222.353 407.599Z" fill="#02597E"/>
<path d="M240.745 413.599C239.816 413.599 238.982 413.441 238.226 413.126C237.47 412.811 236.84 412.386 236.305 411.835C235.769 411.284 235.376 410.654 235.076 409.946C234.793 409.221 234.651 408.465 234.651 407.678C234.651 406.891 234.793 406.072 235.076 405.348C235.36 404.623 235.754 403.978 236.289 403.426C236.824 402.875 237.454 402.434 238.21 402.119C238.966 401.789 239.816 401.631 240.761 401.631C241.706 401.631 242.54 401.789 243.28 402.119C244.021 402.45 244.65 402.875 245.17 403.426C245.69 403.978 246.083 404.607 246.351 405.316C246.619 406.04 246.76 406.78 246.76 407.568C246.76 407.757 246.76 407.946 246.76 408.119C246.76 408.292 246.729 408.45 246.697 408.56H237.769C237.816 409.016 237.927 409.426 238.1 409.772C238.273 410.119 238.509 410.434 238.777 410.67C239.06 410.922 239.375 411.111 239.722 411.237C240.068 411.363 240.446 411.441 240.824 411.441C241.407 411.441 241.973 411.3 242.493 411.016C243.013 410.733 243.375 410.355 243.564 409.883L246.099 410.591C245.674 411.473 244.997 412.197 244.068 412.764C243.139 413.331 242.021 413.615 240.729 413.615L240.745 413.599ZM243.737 406.639C243.658 405.773 243.343 405.08 242.777 404.56C242.21 404.041 241.533 403.773 240.714 403.773C240.32 403.773 239.942 403.836 239.596 403.978C239.249 404.119 238.95 404.308 238.682 404.56C238.415 404.812 238.194 405.111 238.037 405.458C237.864 405.804 237.769 406.198 237.738 406.623H243.737V406.639Z" fill="#02597E"/>
<path d="M259.405 416.181V412.906H252.98V410.276L260.365 400.797H262.365V410.245H264.302V412.89H262.365V416.166H259.405V416.181ZM255.925 410.261H259.736V405.285L255.925 410.261Z" fill="#02597E"/>
<path d="M374.622 307.294V322.93H371.599V316.254H364.497V322.93H361.458V307.294H364.497V313.624H371.599V307.294H374.622Z" fill="#02597E"/>
<path d="M381.126 323.151C379.945 323.151 379.032 322.773 378.417 322.001C377.803 321.246 377.488 320.112 377.488 318.616V311.388H380.449V317.97C380.449 319.75 381.094 320.632 382.37 320.632C382.937 320.632 383.504 320.458 384.039 320.112C384.574 319.765 385.015 319.246 385.346 318.537V311.373H388.306V319.529C388.306 319.844 388.369 320.065 388.464 320.191C388.574 320.317 388.747 320.395 388.999 320.411V322.915C388.7 322.978 388.464 323.009 388.259 323.025C388.07 323.025 387.881 323.041 387.724 323.041C387.204 323.041 386.763 322.915 386.432 322.679C386.102 322.442 385.913 322.096 385.85 321.671L385.787 320.742C385.267 321.529 384.606 322.127 383.803 322.521C383 322.915 382.102 323.119 381.142 323.119L381.126 323.151Z" fill="#02597E"/>
<path d="M397.786 323.151C396.904 323.151 396.117 322.946 395.424 322.552C394.731 322.159 394.195 321.608 393.786 320.915V322.915H391.204V306.837H394.164V313.404C394.573 312.695 395.109 312.16 395.786 311.766C396.447 311.372 397.235 311.183 398.132 311.183C398.888 311.183 399.565 311.341 400.179 311.672C400.793 312.002 401.329 312.427 401.77 312.979C402.21 313.53 402.557 314.16 402.809 314.9C403.045 315.64 403.171 316.411 403.171 317.214C403.171 318.017 403.029 318.836 402.762 319.545C402.494 320.253 402.116 320.899 401.628 321.434C401.14 321.97 400.573 322.395 399.911 322.694C399.25 323.009 398.541 323.151 397.77 323.151H397.786ZM396.967 320.631C397.439 320.631 397.864 320.537 398.274 320.364C398.667 320.175 399.014 319.939 399.282 319.624C399.565 319.309 399.77 318.946 399.927 318.537C400.085 318.128 400.163 317.687 400.163 317.214C400.163 316.742 400.085 316.301 399.943 315.876C399.801 315.451 399.581 315.073 399.313 314.758C399.045 314.427 398.715 314.175 398.353 313.986C397.99 313.797 397.581 313.703 397.14 313.703C396.479 313.703 395.896 313.923 395.361 314.349C394.825 314.774 394.432 315.309 394.164 315.939V318.695C394.274 318.994 394.416 319.246 394.621 319.482C394.825 319.718 395.046 319.923 395.298 320.08C395.55 320.253 395.817 320.379 396.117 320.474C396.416 320.568 396.699 320.616 396.983 320.616L396.967 320.631Z" fill="#02597E"/>
<path d="M381.362 164.646H376.638V243.977H381.362V164.646Z" fill="#2CABE1"/>
<path d="M460.582 284.791L456.703 287.487L504.486 356.238L508.365 353.542L460.582 284.791Z" fill="#2CABE1"/>
<path d="M297.957 284.757L250.162 353.499L254.041 356.196L301.836 287.454L297.957 284.757Z" fill="#2CABE1"/>
<path d="M559.655 211.578L457.779 251.38L459.498 255.78L561.374 215.979L559.655 211.578Z" fill="#2CABE1"/>
<path d="M198.352 211.551L196.632 215.951L298.502 255.771L300.222 251.371L198.352 211.551Z" fill="#2CABE1"/>
</g>
<defs>
<clipPath id="clip0_207_2">
<rect width="757" height="528.769" fill="white" transform="translate(0.5)"/>
</clipPath>
</defs>
</svg>
